<?xml version="1.0" encoding="UTF-8" standalone="no"?> <svg width="64" height="64" viewBox="0 0 64 64" fill="none" xmlns="http://www.w3.org/2000/svg">
<path d="M21.45 28.1201H35.45C35.8478 28.1201 36.2293 27.9621 36.5106 27.6808C36.7919 27.3995 36.95 27.0179 36.95 26.6201C36.95 26.2223 36.7919 25.8408 36.5106 25.5595C36.2293 25.2782 35.8478 25.1201 35.45 25.1201H21.45C21.0521 25.1201 20.6706 25.2782 20.3893 25.5595C20.108 25.8408 19.95 26.2223 19.95 26.6201C19.95 27.0179 20.108 27.3995 20.3893 27.6808C20.6706 27.9621 21.0521 28.1201 21.45 28.1201V28.1201Z" fill="black"/>
<path d="M15.3999 34.3804H41.5299C41.9277 34.3804 42.3093 34.2223 42.5906 33.941C42.8719 33.6597 43.0299 33.2782 43.0299 32.8804C43.0299 32.4825 42.8719 32.101 42.5906 31.8197C42.3093 31.5384 41.9277 31.3804 41.5299 31.3804H15.3999C15.0021 31.3804 14.6205 31.5384 14.3392 31.8197C14.0579 32.101 13.8999 32.4825 13.8999 32.8804C13.8999 33.2782 14.0579 33.6597 14.3392 33.941C14.6205 34.2223 15.0021 34.3804 15.3999 34.3804V34.3804Z" fill="black"/>
<path d="M41.5299 37.6304H15.3999C15.0021 37.6304 14.6205 37.7884 14.3392 38.0697C14.0579 38.351 13.8999 38.7325 13.8999 39.1304C13.8999 39.5282 14.0579 39.9097 14.3392 40.191C14.6205 40.4723 15.0021 40.6304 15.3999 40.6304H41.5299C41.9277 40.6304 42.3093 40.4723 42.5906 40.191C42.8719 39.9097 43.0299 39.5282 43.0299 39.1304C43.0299 38.7325 42.8719 38.351 42.5906 38.0697C42.3093 37.7884 41.9277 37.6304 41.5299 37.6304V37.6304Z" fill="black"/>
<path d="M35.48 43.8901H21.48C21.0822 43.8901 20.7006 44.0482 20.4193 44.3295C20.138 44.6108 19.98 44.9923 19.98 45.3901C19.98 45.788 20.138 46.1695 20.4193 46.4508C20.7006 46.7321 21.0822 46.8901 21.48 46.8901H35.48C35.8778 46.8901 36.2593 46.7321 36.5406 46.4508C36.8219 46.1695 36.98 45.788 36.98 45.3901C36.98 44.9923 36.8219 44.6108 36.5406 44.3295C36.2593 44.0482 35.8778 43.8901 35.48 43.8901V43.8901Z" fill="black"/>
<path d="M61.3499 49.1802L55.5499 37.1202C57.1612 34.3632 58.1808 31.301 58.5436 28.1284C58.9065 24.9558 58.6048 21.7425 57.6577 18.6929C56.7106 15.6433 55.1388 12.8244 53.0425 10.4156C50.9462 8.00675 48.3712 6.06085 45.4816 4.70177C42.592 3.34269 39.4511 2.60022 36.2588 2.52162C33.0665 2.44302 29.8928 3.03002 26.9398 4.24524C23.9868 5.46047 21.3192 7.27728 19.1069 9.58001C16.8946 11.8827 15.186 14.6209 14.0899 17.6202C9.72794 21.0527 6.7544 25.9468 5.71785 31.3998C4.68129 36.8527 5.65165 42.4966 8.44993 47.2902L2.64993 59.3502C2.52247 59.6301 2.48353 59.9422 2.5383 60.2449C2.59307 60.5475 2.73896 60.8262 2.95643 61.0437C3.1739 61.2611 3.4526 61.407 3.75524 61.4618C4.05788 61.5166 4.37003 61.4776 4.64993 61.3502L16.7099 55.5502C19.4149 57.1303 22.4142 58.1411 25.5239 58.5207C28.6335 58.9003 31.7879 58.6406 34.7935 57.7576C37.7992 56.8747 40.5928 55.387 43.0031 53.3858C45.4133 51.3847 47.3893 48.9122 48.8099 46.1202L59.3499 51.1802C59.6298 51.3076 59.942 51.3466 60.2446 51.2918C60.5473 51.237 60.826 51.0911 61.0434 50.8737C61.2609 50.6562 61.4068 50.3775 61.4616 50.0749C61.5163 49.7722 61.4774 49.4601 61.3499 49.1802V49.1802ZM28.3499 55.6902C24.5594 55.6969 20.8463 54.6177 17.6499 52.5802C17.4338 52.4436 17.1867 52.3637 16.9315 52.348C16.6763 52.3323 16.4212 52.3812 16.1899 52.4902L7.24993 56.7902L11.5499 47.8502C11.659 47.6206 11.7079 47.3672 11.6922 47.1135C11.6764 46.8599 11.5965 46.6145 11.4599 46.4002C9.08325 42.6519 8.02085 38.2196 8.44004 33.8012C8.85923 29.3828 10.7362 25.2293 13.7754 21.9949C16.8145 18.7604 20.8432 16.6288 25.227 15.9356C29.6108 15.2424 34.1006 16.0271 37.9894 18.1661C41.8782 20.305 44.9451 23.6768 46.7071 27.7503C48.469 31.8238 48.826 36.3677 47.7217 40.6664C46.6174 44.965 44.1146 48.7743 40.6075 51.4942C37.1004 54.2142 32.7882 55.6903 28.3499 55.6902V55.6902ZM49.9999 43.3702C51.5086 39.118 51.7334 34.516 50.6462 30.1371C49.559 25.7582 47.2079 21.7957 43.8855 18.743C40.5631 15.6903 36.4163 13.6822 31.9612 12.9687C27.5061 12.2552 22.9395 12.8678 18.8299 14.7302C21.6797 10.2546 26.1906 7.09448 31.3704 5.94488C36.5501 4.79529 41.9744 5.75042 46.4499 8.60017C50.9255 11.4499 54.0856 15.9609 55.2352 21.1406C56.3848 26.3204 55.4297 31.7446 52.5799 36.2202C52.4449 36.4372 52.3668 36.6847 52.3528 36.9399C52.3389 37.1951 52.3894 37.4497 52.4999 37.6802L56.7999 46.6802L49.9999 43.3702Z" fill="black"/>
</svg>
