<?xml version="1.0" encoding="UTF-8" standalone="no"?> <svg width="64" height="64" viewBox="0 0 64 64" fill="none" xmlns="http://www.w3.org/2000/svg">
<path d="M61.5 24C61.4972 23.6588 61.3811 23.3281 61.17 23.06L45.17 3.12C45.0371 2.93234 44.862 2.77849 44.6588 2.6708C44.4556 2.56312 44.2299 2.50462 44 2.5H8C6.54212 2.50264 5.14471 3.08295 4.11383 4.11383C3.08295 5.14471 2.50264 6.54212 2.5 8V56C2.50264 57.4579 3.08295 58.8553 4.11383 59.8862C5.14471 60.917 6.54212 61.4974 8 61.5H56C57.4579 61.4974 58.8553 60.917 59.8862 59.8862C60.917 58.8553 61.4974 57.4579 61.5 56V24ZM35.07 5.5V12.64H16.21V5.5H35.07ZM16.21 58.5V33.5H47.79V58.5H16.21ZM58.5 56C58.5 56.663 58.2366 57.2989 57.7678 57.7678C57.2989 58.2366 56.663 58.5 56 58.5H50.79V32C50.79 31.6022 50.632 31.2206 50.3507 30.9393C50.0694 30.658 49.6878 30.5 49.29 30.5H14.71C14.3122 30.5 13.9306 30.658 13.6493 30.9393C13.368 31.2206 13.21 31.6022 13.21 32V58.5H8C7.33696 58.5 6.70107 58.2366 6.23223 57.7678C5.76339 57.2989 5.5 56.663 5.5 56V8C5.5 7.33696 5.76339 6.70107 6.23223 6.23223C6.70107 5.76339 7.33696 5.5 8 5.5H13.21V14.14C13.21 14.5378 13.368 14.9194 13.6493 15.2007C13.9306 15.482 14.3122 15.64 14.71 15.64H36.57C36.9678 15.64 37.3494 15.482 37.6307 15.2007C37.912 14.9194 38.07 14.5378 38.07 14.14V5.5H43.28L58.5 24.5V56Z" fill="black"/>
<path d="M40.36 37.3601H23.64C23.2422 37.3601 22.8607 37.5181 22.5794 37.7994C22.2981 38.0808 22.14 38.4623 22.14 38.8601C22.14 39.2579 22.2981 39.6395 22.5794 39.9208C22.8607 40.2021 23.2422 40.3601 23.64 40.3601H40.36C40.7578 40.3601 41.1394 40.2021 41.4207 39.9208C41.702 39.6395 41.86 39.2579 41.86 38.8601C41.86 38.4623 41.702 38.0808 41.4207 37.7994C41.1394 37.5181 40.7578 37.3601 40.36 37.3601Z" fill="black"/>
<path d="M40.36 44.3601H23.64C23.2422 44.3601 22.8607 44.5181 22.5794 44.7994C22.2981 45.0808 22.14 45.4623 22.14 45.8601C22.14 46.2579 22.2981 46.6395 22.5794 46.9208C22.8607 47.2021 23.2422 47.3601 23.64 47.3601H40.36C40.7578 47.3601 41.1394 47.2021 41.4207 46.9208C41.702 46.6395 41.86 46.2579 41.86 45.8601C41.86 45.4623 41.702 45.0808 41.4207 44.7994C41.1394 44.5181 40.7578 44.3601 40.36 44.3601Z" fill="black"/>
<path d="M40.36 54.3601H23.64C23.2422 54.3601 22.8607 54.2021 22.5794 53.9208C22.2981 53.6395 22.14 53.2579 22.14 52.8601C22.14 52.4623 22.2981 52.0808 22.5794 51.7994C22.8607 51.5181 23.2422 51.3601 23.64 51.3601H40.36C40.7578 51.3601 41.1394 51.5181 41.4207 51.7994C41.702 52.0808 41.86 52.4623 41.86 52.8601C41.86 53.2579 41.702 53.6395 41.4207 53.9208C41.1394 54.2021 40.7578 54.3601 40.36 54.3601V54.3601Z" fill="black"/>
</svg>
