<?xml version="1.0" encoding="UTF-8" standalone="no"?> <svg width="64" height="64" viewBox="0 0 64 64" fill="none" xmlns="http://www.w3.org/2000/svg">
<path d="M17.29 40.8701H4C3.60218 40.8701 3.22064 41.0282 2.93934 41.3095C2.65804 41.5908 2.5 41.9723 2.5 42.3701V60.0001C2.5 60.3979 2.65804 60.7795 2.93934 61.0608C3.22064 61.3421 3.60218 61.5001 4 61.5001H17.29C17.6878 61.5001 18.0694 61.3421 18.3507 61.0608C18.632 60.7795 18.79 60.3979 18.79 60.0001V42.3701C18.79 41.9723 18.632 41.5908 18.3507 41.3095C18.0694 41.0282 17.6878 40.8701 17.29 40.8701V40.8701ZM15.79 58.5001H5.5V43.8701H15.79V58.5001Z" fill="black"/>
<path d="M38.64 22.21H25.36C24.9622 22.21 24.5806 22.368 24.2993 22.6493C24.018 22.9306 23.86 23.3121 23.86 23.71V60C23.86 60.3978 24.018 60.7793 24.2993 61.0606C24.5806 61.3419 24.9622 61.5 25.36 61.5H38.64C39.0378 61.5 39.4193 61.3419 39.7006 61.0606C39.982 60.7793 40.14 60.3978 40.14 60V23.71C40.14 23.3121 39.982 22.9306 39.7006 22.6493C39.4193 22.368 39.0378 22.21 38.64 22.21ZM37.14 58.5H26.86V25.21H37.14V58.5Z" fill="black"/>
<path d="M60 2.5H46.71C46.3121 2.5 45.9306 2.65804 45.6493 2.93934C45.368 3.22064 45.21 3.60218 45.21 4V60C45.21 60.3978 45.368 60.7794 45.6493 61.0607C45.9306 61.342 46.3121 61.5 46.71 61.5H60C60.3978 61.5 60.7793 61.342 61.0606 61.0607C61.3419 60.7794 61.5 60.3978 61.5 60V4C61.5 3.60218 61.3419 3.22064 61.0606 2.93934C60.7793 2.65804 60.3978 2.5 60 2.5ZM58.5 58.5H48.21V5.5H58.5V58.5Z" fill="black"/>
</svg>
