<?xml version="1.0" encoding="UTF-8" standalone="no"?> <svg width="64" height="64" viewBox="0 0 64 64" fill="none" xmlns="http://www.w3.org/2000/svg">
<path d="M56 2.5H8C6.54212 2.50264 5.14471 3.08295 4.11383 4.11383C3.08295 5.14471 2.50264 6.54212 2.5 8V56C2.50264 57.4579 3.08295 58.8553 4.11383 59.8862C5.14471 60.917 6.54212 61.4974 8 61.5H56C57.4579 61.4974 58.8553 60.917 59.8862 59.8862C60.917 58.8553 61.4974 57.4579 61.5 56V8C61.4974 6.54212 60.917 5.14471 59.8862 4.11383C58.8553 3.08295 57.4579 2.50264 56 2.5V2.5ZM58.5 56C58.5 56.663 58.2366 57.2989 57.7678 57.7678C57.2989 58.2366 56.663 58.5 56 58.5H8C7.33696 58.5 6.70107 58.2366 6.23223 57.7678C5.76339 57.2989 5.5 56.663 5.5 56V8C5.5 7.33696 5.76339 6.70107 6.23223 6.23223C6.70107 5.76339 7.33696 5.5 8 5.5H56C56.663 5.5 57.2989 5.76339 57.7678 6.23223C58.2366 6.70107 58.5 7.33696 58.5 8V56Z" fill="black"/>
<path d="M32 10.5C31.1548 10.5005 30.3187 10.6752 29.544 11.0132C28.7693 11.3513 28.0725 11.8454 27.4973 12.4647C26.9221 13.084 26.4807 13.8153 26.2007 14.6128C25.9207 15.4103 25.8082 16.257 25.87 17.1L27.5 39C27.5204 39.3847 27.6871 39.7471 27.966 40.0129C28.2448 40.2788 28.6147 40.428 29 40.43H35C35.3853 40.428 35.7552 40.2788 36.034 40.0129C36.3129 39.7471 36.4796 39.3847 36.5 39L38.13 17.1C38.1918 16.257 38.0793 15.4103 37.7993 14.6128C37.5193 13.8153 37.0779 13.084 36.5027 12.4647C35.9275 11.8454 35.2307 11.3513 34.456 11.0132C33.6813 10.6752 32.8452 10.5005 32 10.5ZM33.61 37.43H30.39L28.87 16.88C28.8346 16.4473 28.8901 16.012 29.0331 15.6021C29.176 15.1922 29.4032 14.8168 29.7 14.5C29.9998 14.194 30.3577 13.9509 30.7526 13.785C31.1475 13.619 31.5716 13.5335 32 13.5335C32.4284 13.5335 32.8525 13.619 33.2474 13.785C33.6423 13.9509 34.0002 14.194 34.3 14.5C34.5968 14.8168 34.824 15.1922 34.9669 15.6021C35.1099 16.012 35.1654 16.4473 35.13 16.88L33.61 37.43Z" fill="black"/>
<path d="M32 43.0701C30.9672 43.0681 29.957 43.3726 29.0972 43.9449C28.2375 44.5173 27.5669 45.3319 27.1702 46.2855C26.7736 47.2392 26.6688 48.2891 26.8691 49.3023C27.0694 50.3155 27.5658 51.2466 28.2954 51.9776C29.025 52.7087 29.9551 53.2068 30.968 53.409C31.9808 53.6113 33.0309 53.5085 33.9853 53.1137C34.9397 52.7189 35.7556 52.0498 36.3296 51.1912C36.9036 50.3326 37.21 49.3229 37.21 48.2901C37.21 46.9074 36.6614 45.5812 35.6847 44.6025C34.7079 43.6239 33.3827 43.0727 32 43.0701ZM32 50.5001C31.5601 50.5021 31.1295 50.3733 30.7629 50.1301C30.3963 49.8869 30.1102 49.5403 29.9409 49.1343C29.7717 48.7282 29.7269 48.281 29.8122 47.8494C29.8976 47.4179 30.1092 47.0214 30.4203 46.7103C30.7313 46.3993 31.1278 46.1876 31.5594 46.1023C31.991 46.0169 32.4381 46.0617 32.8442 46.231C33.2503 46.4003 33.5969 46.6864 33.8401 47.053C34.0832 47.4196 34.212 47.8502 34.21 48.2901C34.21 48.8762 33.9772 49.4383 33.5627 49.8528C33.1483 50.2672 32.5861 50.5001 32 50.5001Z" fill="black"/>
</svg>
